<?xml version="1.0" encoding="utf-8"?>
<!-- Generator: Adobe Illustrator 19.0.0, SVG Export Plug-In . SVG Version: 6.00 Build 0)  -->
<svg version="1.1" id="Layer_1" xmlns="http://www.w3.org/2000/svg" xmlns:xlink="http://www.w3.org/1999/xlink" x="0px" y="0px"
	 viewBox="0 0 612 792" style="enable-background:new 0 0 612 792;" xml:space="preserve">
<polygon id="XMLID_1_" points="277.6,537.6 277.6,537.4 265.9,537.4 265.9,507.5 265.9,507.5 265.9,499.6 245.8,499.6 245.8,542.1 
	245.8,542.1 245.8,542.2 277.7,542.2 277.7,537.6 "/>
<path id="XMLID_2_" d="M421.5,511.9c-2.8-0.8-6.5-1.2-11-1.2c-2.6,0-5,0.2-7.1,0.5c-1.6,0.2-4.3,0.8-8.1,1.9
	c-3.5-1.5-8.3-2.3-14.4-2.3c-2.9,0-5.5,0.2-7.7,0.5c-2.2,0.3-4.6,0.9-7.3,1.8c-1.9-1.1-5.4-1.9-10.5-2.3l-12,3.3
	c2.3,0.4,3.4,1.1,3.4,1.9l0,26.3l20.4,0l0-25.8c0.9-0.3,1.8-0.6,2.7-0.7c0.9-0.2,1.7-0.3,2.6-0.3c1.1,0,2,0.1,2.7,0.3
	c0.9,0.3,1.4,0.7,1.4,1.2l0,25.3l20.4,0l0-25.8c0.9-0.3,1.8-0.6,2.7-0.7c0.9-0.2,1.7-0.2,2.5-0.2c1.2,0,2.2,0.1,3.1,0.4
	c0.9,0.2,1.3,0.6,1.3,1.2l0,25.3l20.4,0l0-25.8C426.9,514.4,425.1,512.9,421.5,511.9z"/>
<path id="XMLID_3_" d="M350.3,390.4c6.7-41.5-4.8-69.9-10.5-83c-13-29.9-25.9-43.1-25.9-43.1c5.1-34.8,14.7-39.1-12.6-42.2
	c-7,0.8-7,24.4-8.1,23.8c-18.4-10.7-33.4-19-60.5-21.6c-25.3-2.4-62,4.7-60.1,34.9c0.8,11.4,5.8,18.9,20.3,17.8
	c7.5-0.5,8.9-8,12.2-14.8c13.8-29,54.8-19.7,84.8,3.4c-1.9,19.4-10.4,76.7-23.2,143c-5.1,26.3,3.2,25.6,4.1,24.3
	c11.5-16.9,27.4-96.4,38.8-144.7c36,47.3,16.7,103.5-15.1,143.3c-18.7,23.4-48.2,31.5-73,32.1c-16.4,0.4-41.2,2.1-84.4-19.7
	c-24.3-12.2-51.7-33.6-41.4-67.7c2.6-8.5,5.7-18.9-0.6-27.5c-7.5-10.3-21.9-5-26.2,5.4c-4.1,9.9,4.8,35.4,10,47
	c4.7,10.3,11.7,22.3,15.8,28.1c43.6,61.8,154.8,81.5,200.9,48.7C316.1,463.3,341.7,443,350.3,390.4z"/>
<path id="XMLID_4_" d="M333.5,534.1l0-23.4l-9.5,0c-11.6,0-20.8,1-27.6,3c-8.9,2.6-13.3,6.3-13.3,11.2l0,3.8c0,6,2.4,10,7.3,12
	c3.1,1.3,7,1.9,11.8,1.9c4.7,0,9.3-0.9,13.8-2.7c1.7,0.9,3.4,1.5,4.9,1.9c1.6,0.4,3.6,0.6,6,0.8l11.8-4c-1.7-0.3-3-0.8-3.9-1.4
	C334,536.5,333.5,535.5,333.5,534.1z M310,538c-1.3,0-2.4-0.2-3.3-0.7c-2.1-1.1-3.1-3.4-3.1-7l0-5.7c0-2.9,0.8-4.9,2.3-5.8
	c1.6-1,4-1.7,7.3-2.1l0,21C312.4,537.9,311.4,538,310,538z"/>
<path id="XMLID_7_" d="M480.4,512.6c-3.1-1.3-6.9-1.9-11.3-1.9c-3.5,0-7.2,0.7-10.9,2.2c-0.9-0.5-2.2-0.9-3.8-1.2
	c-1.6-0.3-4-0.6-7.4-1l-13.7,3.4c3,0.5,4.5,1.3,4.5,2.1l0,31.9h0v12.3H458l0.1-17.9c8-0.2,14.5-1.2,19.3-3
	c7.1-2.6,10.7-6.6,10.7-11.9v-3.6C488.1,518.5,485.5,514.7,480.4,512.6z M464,535.4c-1.4,0.7-3.4,1.1-5.9,1.2l0-21.1
	c0.9-0.2,1.8-0.3,2.8-0.3c1.5,0,2.8,0.2,3.8,0.7c2,0.9,3,2.9,3,6l0,6.5C467.7,531.9,466.5,534.2,464,535.4z"/>
<path id="XMLID_10_" d="M561.8,554c-11.7-10.2-30.7-10.9-42.6-32.3c-9.7-17.5-6.6-42.4-6.1-64.5c17.2-2.9,34.3-2.5,33.4-21.4
	c-0.2-5.2-21,1.6-29.9-0.4c1.6-17.5,8.2-43.8,13.1-67.2c1.6-7.7,2.6-22.9-2.4-25.3c-4.8-2.3-11.5,2.9-14.8,8.3
	c-3.5,5.6-7.1,17.6-9.2,29.2c-4,21.9-3.9,36.5-7.6,54.6c-19.6-0.9-38.7-0.8-49,18.6c-1.5-13.2,4.1-26.5-12-31.6
	c-12.3,11.4-22.3,37.6-38.9,39.7c4.5-20.7,14.3-36.5,6.4-48.8c-17.4-24.6-69.3-10.3-47.5,5.3c7.1,5.1,21.3-6.2,30.7-3.9
	c12.7,3.1,3.1,19.4-1.3,18c-30.5-16.4-68.8,26.5-44.6,46.7c17.5,14.6,31.4,1.6,42.1-8.5c2,3.1,0.7,8,6.1,9.2
	c19.5,0.6,30.4-28.3,43.8-40.9c4.2,13.4-1.7,40.9,8,51.3c10.3-10.3,15.2-31.4,28.1-37c7.3-3.2,15.1,0.3,27.1,1.6
	c2.8,30.1,0.9,73.1,22.8,93.3c12.1,11.2,36.4,21.9,44,20C567,566.5,565.8,557.2,561.8,554z M369,459.4c-5.8,5.7-15.2,8.6-16.6,0.6
	c-0.8-4.7,3.9-9.4,9.1-12c0.3-0.3,0.7-0.5,1.2-0.7c0.3-0.2,0.5-0.3,0.8-0.4c0.7-0.6,1.6-1.1,2.6-1.3c0.7-0.3,1.4-0.4,2.3-0.4
	c6.5,0,7.7,8.8,3.5,11.8"/>
</svg>
