<?xml version="1.0" encoding="utf-8"?>
<!-- Generator: Adobe Illustrator 15.1.0, SVG Export Plug-In . SVG Version: 6.00 Build 0)  -->
<!DOCTYPE svg PUBLIC "-//W3C//DTD SVG 1.1//EN" "http://www.w3.org/Graphics/SVG/1.1/DTD/svg11.dtd">
<svg version="1.1" id="Layer_1" xmlns="http://www.w3.org/2000/svg" xmlns:xlink="http://www.w3.org/1999/xlink" x="0px" y="0px"
	 width="39.891px" height="27.951px" viewBox="25.756 17.947 39.891 27.951" enable-background="new 25.756 17.947 39.891 27.951"
	 xml:space="preserve">
<polygon id="XMLID_1_" points="42.705,43.442 42.705,43.426 41.76,43.426 41.76,41.01 41.76,41.01 41.76,40.371 40.135,40.371 
	40.135,43.807 40.135,43.807 40.135,43.814 42.713,43.814 42.713,43.442 "/>
<path id="XMLID_2_" d="M54.334,41.365c-0.227-0.064-0.525-0.097-0.89-0.097c-0.21,0-0.403,0.017-0.573,0.04
	c-0.13,0.017-0.348,0.064-0.654,0.154c-0.283-0.121-0.672-0.186-1.164-0.186c-0.234,0-0.445,0.016-0.623,0.04
	s-0.371,0.072-0.59,0.146c-0.152-0.09-0.436-0.154-0.848-0.186l-0.97,0.266c0.186,0.033,0.274,0.09,0.274,0.154v2.125h1.648v-2.085
	c0.072-0.024,0.146-0.048,0.219-0.057c0.072-0.017,0.137-0.024,0.209-0.024c0.09,0,0.162,0.008,0.219,0.024
	c0.072,0.024,0.113,0.057,0.113,0.097v2.045h1.648v-2.085c0.072-0.024,0.146-0.048,0.219-0.057c0.072-0.017,0.137-0.017,0.201-0.017
	c0.098,0,0.178,0.009,0.251,0.033c0.073,0.016,0.104,0.049,0.104,0.097v2.044h1.648v-2.084
	C54.77,41.568,54.624,41.446,54.334,41.365z"/>
<path id="XMLID_3_" d="M48.58,31.547c0.541-3.354-0.389-5.648-0.849-6.707c-1.051-2.416-2.093-3.483-2.093-3.483
	c0.412-2.812,1.188-3.16-1.019-3.41c-0.565,0.065-0.565,1.972-0.654,1.923c-1.487-0.865-2.699-1.535-4.889-1.746
	c-2.044-0.194-5.01,0.38-4.856,2.82c0.064,0.921,0.469,1.527,1.641,1.438c0.606-0.041,0.719-0.646,0.986-1.196
	c1.115-2.344,4.428-1.592,6.853,0.274c-0.154,1.568-0.841,6.198-1.875,11.555c-0.412,2.126,0.259,2.069,0.332,1.965
	c0.929-1.366,2.214-7.791,3.135-11.693c2.909,3.822,1.35,8.363-1.22,11.58c-1.511,1.891-3.895,2.545-5.899,2.594
	c-1.325,0.032-3.33,0.17-6.82-1.592c-1.964-0.986-4.178-2.715-3.346-5.471c0.21-0.687,0.461-1.527-0.048-2.222
	c-0.606-0.832-1.77-0.404-2.117,0.437c-0.331,0.8,0.388,2.86,0.808,3.798c0.38,0.832,0.945,1.803,1.277,2.271
	c3.523,4.994,12.509,6.586,16.234,3.936C45.816,37.438,47.885,35.798,48.58,31.547z"/>
<path id="XMLID_4_" d="M47.223,43.16v-1.892h-0.768c-0.938,0-1.681,0.081-2.231,0.243c-0.719,0.209-1.075,0.508-1.075,0.904v0.307
	c0,0.485,0.194,0.809,0.59,0.971c0.25,0.104,0.566,0.153,0.954,0.153c0.38,0,0.751-0.073,1.116-0.218
	c0.137,0.072,0.274,0.121,0.396,0.152c0.13,0.033,0.291,0.049,0.485,0.065l0.953-0.323c-0.138-0.024-0.242-0.064-0.315-0.113
	C47.263,43.354,47.223,43.273,47.223,43.16z M45.323,43.475c-0.105,0-0.194-0.016-0.267-0.057c-0.17-0.089-0.25-0.274-0.25-0.565
	v-0.46c0-0.234,0.064-0.396,0.186-0.469c0.129-0.082,0.323-0.139,0.59-0.17v1.697C45.518,43.467,45.437,43.475,45.323,43.475z"/>
<path id="XMLID_7_" d="M59.093,41.422c-0.251-0.104-0.558-0.153-0.913-0.153c-0.283,0-0.582,0.057-0.881,0.178
	c-0.072-0.04-0.178-0.073-0.307-0.097c-0.129-0.024-0.323-0.049-0.598-0.081l-1.107,0.274c0.242,0.041,0.363,0.105,0.363,0.17v2.578
	l0,0v0.994h1.633l0.008-1.447c0.646-0.016,1.172-0.097,1.56-0.242c0.573-0.21,0.864-0.533,0.864-0.961v-0.291
	C59.715,41.898,59.505,41.592,59.093,41.422z M57.768,43.265c-0.113,0.057-0.274,0.089-0.477,0.097v-1.705
	c0.072-0.016,0.146-0.023,0.227-0.023c0.121,0,0.227,0.016,0.307,0.057c0.162,0.072,0.242,0.234,0.242,0.484v0.525
	C58.066,42.982,57.97,43.168,57.768,43.265z"/>
<path id="XMLID_10_" d="M65.671,44.768c-0.946-0.824-2.481-0.881-3.442-2.609c-0.784-1.414-0.533-3.427-0.493-5.213
	c1.39-0.234,2.771-0.201,2.699-1.729c-0.017-0.421-1.697,0.129-2.417-0.033c0.13-1.414,0.663-3.539,1.059-5.43
	c0.13-0.622,0.211-1.851-0.193-2.044c-0.388-0.186-0.93,0.234-1.195,0.671c-0.283,0.453-0.574,1.422-0.744,2.359
	c-0.323,1.771-0.314,2.95-0.614,4.412c-1.583-0.073-3.127-0.064-3.96,1.503c-0.121-1.066,0.332-2.141-0.969-2.553
	c-0.994,0.921-1.803,3.038-3.145,3.207c0.364-1.672,1.156-2.949,0.518-3.943c-1.406-1.987-5.6-0.832-3.838,0.429
	c0.574,0.412,1.721-0.501,2.48-0.315c1.026,0.251,0.25,1.568-0.105,1.455c-2.464-1.326-5.559,2.141-3.604,3.773
	c1.414,1.18,2.537,0.129,3.402-0.688c0.161,0.251,0.057,0.646,0.492,0.744c1.576,0.049,2.457-2.287,3.54-3.305
	c0.339,1.082-0.138,3.305,0.646,4.145c0.832-0.832,1.228-2.537,2.271-2.989c0.59-0.259,1.221,0.024,2.189,0.13
	c0.227,2.432,0.073,5.906,1.843,7.539c0.978,0.904,2.941,1.77,3.556,1.615C66.091,45.777,65.994,45.026,65.671,44.768z
	 M50.091,37.123c-0.469,0.461-1.228,0.695-1.341,0.049c-0.064-0.38,0.314-0.76,0.734-0.97c0.025-0.024,0.057-0.04,0.098-0.057
	c0.023-0.017,0.04-0.024,0.064-0.032c0.057-0.049,0.129-0.089,0.21-0.105c0.057-0.023,0.113-0.032,0.187-0.032
	c0.525,0,0.621,0.712,0.282,0.954"/>
</svg>
